<svg width="24" height="24" fill="none" xmlns="http://www.w3.org/2000/svg"><path fill-rule="evenodd" clip-rule="evenodd" d="M2.903 9.398l-.012.008A2 2 0 002 11.07V19a1 1 0 001 1h1a1 1 0 001-1v-1h14v1a1 1 0 001 1h1a1 1 0 001-1v-7.93a2 2 0 00-.89-1.664l-.013-.008c.365-.21.695-.417.76-.51.154-.221.225-.888 0-.888H20l-1.17-2.342A3 3 0 0016.145 4H7.854a3 3 0 00-2.683 1.658L4 8H2.144c-.226 0-.155.667 0 .889.064.092.394.299.759.51zm3.199-3.34l-1.71 3.207a.5.5 0 00.441.735h14.334a.5.5 0 00.44-.735l-1.709-3.206A2 2 0 0016.133 5H7.867a2 2 0 00-1.765 1.059zM3 13.08v-1.21a.5.5 0 01.752-.431l3.339 1.947c.46.269.237.975-.294.93l-2.88-.24A1 1 0 013 13.08zm18-1.21v1.21a1 1 0 01-.917.996l-2.88.24c-.531.045-.754-.661-.294-.93l3.34-1.947a.5.5 0 01.751.431z" fill="#000"/></svg>