<svg width="21" height="15" fill="none" xmlns="http://www.w3.org/2000/svg"><g clip-path="url(#clip0_3_148)"><mask id="a" style="mask-type:alpha" maskUnits="userSpaceOnUse" x="0" y="0" width="21" height="15"><path d="M19 0H2a2 2 0 00-2 2v11a2 2 0 002 2h17a2 2 0 002-2V2a2 2 0 00-2-2z" fill="#fff"/></mask><g mask="url(#a)"><path d="M19 0H2a2 2 0 00-2 2v11a2 2 0 002 2h17a2 2 0 002-2V2a2 2 0 00-2-2z" fill="#fff"/><path fill-rule="evenodd" clip-rule="evenodd" d="M9 9H0V6h9V0h3v6h9v3h-9v6H9V9z" fill="red"/><path fill-rule="evenodd" clip-rule="evenodd" d="M15 11h-1v1h1v1h1v-1h1v-1h-1v-1h-1v1zm0-8h-1v1h1v1h1V4h1V3h-1V2h-1v1zM5 3H4v1h1v1h1V4h1V3H6V2H5v1zm0 8H4v1h1v1h1v-1h1v-1H6v-1H5v1z" fill="red"/><path d="M19 .5H2A1.5 1.5 0 00.5 2v11A1.5 1.5 0 002 14.5h17a1.5 1.5 0 001.5-1.5V2A1.5 1.5 0 0019 .5z" stroke="#000" stroke-opacity=".1"/></g></g><defs><clipPath id="clip0_3_148"><path fill="#fff" d="M0 0h21v15H0z"/></clipPath></defs></svg>