<svg width="24" height="24" fill="none" xmlns="http://www.w3.org/2000/svg"><path d="M8.5 14.5h7m-7-5H12" stroke="#fff" stroke-width="1.5" stroke-linecap="round" stroke-linejoin="round"/><path d="M14.17 20.89c4.184-.277 7.516-3.657 7.79-7.9.053-.83.053-1.69 0-2.52-.274-4.242-3.606-7.62-7.79-7.899a33.182 33.182 0 00-4.34 0c-4.184.278-7.516 3.657-7.79 7.9a19.99 19.99 0 000 2.52c.1 1.545.783 2.976 1.588 4.184.467.845.159 1.9-.328 2.823-.35.665-.526.997-.385 1.237.14.24.455.248 1.084.263 1.245.03 2.084-.322 2.75-.813.377-.279.566-.418.696-.434.13-.016.387.09.899.3.46.19.995.307 1.485.34 1.425.094 2.914.094 4.342 0z" stroke="#fff" stroke-width="1.5" stroke-linejoin="round"/></svg>