<svg width="24" height="24" fill="none" xmlns="http://www.w3.org/2000/svg"><path d="M7 14l1.995-2.395c.637-.763.955-1.145 1.338-1.145.384 0 .702.382 1.338 1.145l.658.79c.636.763.954 1.145 1.338 1.145.383 0 .701-.382 1.338-1.145L17 10" stroke="#fff" stroke-width="1.5" stroke-linecap="round" stroke-linejoin="round"/><path d="M12 22c5.523 0 10-4.477 10-10S17.523 2 12 2 2 6.477 2 12c0 1.379.28 2.693.784 3.888.279.66.418.99.436 1.24.017.25-.057.524-.204 1.073L2 22l3.799-1.016c.549-.147.823-.22 1.073-.204.25.018.58.157 1.24.436A9.97 9.97 0 0012 22z" stroke="#fff" stroke-width="1.5" stroke-linejoin="round"/></svg>