<svg width="21" height="15" fill="none" xmlns="http://www.w3.org/2000/svg"><g clip-path="url(#clip0_3_53)"><mask id="a" style="mask-type:alpha" maskUnits="userSpaceOnUse" x="0" y="0" width="21" height="15"><path d="M19 0H2a2 2 0 00-2 2v11a2 2 0 002 2h17a2 2 0 002-2V2a2 2 0 00-2-2z" fill="#fff"/></mask><g mask="url(#a)"><path d="M19 0H2a2 2 0 00-2 2v11a2 2 0 002 2h17a2 2 0 002-2V2a2 2 0 00-2-2z" fill="#0034A9"/><path fill-rule="evenodd" clip-rule="evenodd" d="M0 10h21v5H0v-5z" fill="#D7280F"/><path fill-rule="evenodd" clip-rule="evenodd" d="M0 0h21v5H0V0z" fill="#fff"/><path d="M19 .5H2A1.5 1.5 0 00.5 2v11A1.5 1.5 0 002 14.5h17a1.5 1.5 0 001.5-1.5V2A1.5 1.5 0 0019 .5z" stroke="#000" stroke-opacity=".1"/></g></g><defs><clipPath id="clip0_3_53"><path fill="#fff" d="M0 0h21v15H0z"/></clipPath></defs></svg>